<svg xmlns="http://www.w3.org/2000/svg" viewBox="0 0 2880 2000">

  <path d="M2509.2 284c3.385 0 6.8 1.793 6.8 5.8V376H364v-86.2c0-4.007 3.415-5.8 6.8-5.8h2138.4m0-4H370.8c-6 0-10.8 3.8-10.8 9.8V380h2160v-90.2c0-6-4.8-9.8-10.8-9.8z"/>
  <circle cx="407.6" cy="325" r="13.6"/>
  <circle cx="450.8" cy="325" r="13.6"/>
  <circle cx="494.2" cy="325" r="13.6"/>
  <path d="M2494.8 304c1.794 0 3.2 1.406 3.2 3.2v39.6c0 1.794-1.406 3.2-3.2 3.2H549.2c-1.794 0-3.2-1.406-3.2-3.2v-39.6c0-1.794 1.406-3.2 3.2-3.2h1945.6m0-4H549.2c-4 0-7.2 3.2-7.2 7.2v39.6c0 4 3.2 7.2 7.2 7.2h1945.6c4 0 7.2-3.2 7.2-7.2v-39.6c0-4-3.2-7.2-7.2-7.2z"/>

</svg>