<svg xmlns="http://www.w3.org/2000/svg" viewBox="0 0 2880 2000">

    <path d="M2420.928 735.71c33 0 59.8 26.8 59.8 59.8h-.2v812.4c0 33-26.8 59.8-59.8 59.8h-316.2c-33 0-59.8-26.8-59.8-60v-812.2c0-33 26.8-59.8 59.8-59.8h316.4m0-4h-316.4c-35.18 0-63.8 28.62-63.8 63.8v812.2c0 35.29 28.62 64 63.8 64h316.2c35.18 0 63.8-28.62 63.8-63.8v-808.4h.2v-4c0-35.18-28.62-63.8-63.8-63.8z"/>
    <path d="M2300.73 807.71c0 3.4-2.6 6-6 6h-64c-3.4 0-6-2.6-6-6s2.6-6 6-6h64c3.398 0 6 2.6 6 6zM2262.73 1564.71c22.4 0 40.8 18.2 40.8 40.8 0 22.4-18.2 40.8-40.8 40.8s-40.8-18.2-40.8-40.8 18.4-40.8 40.8-40.8m0-4.8c-25 0-45.6 20.4-45.6 45.6 0 25 20.4 45.6 45.6 45.6s45.6-20.4 45.6-45.6-20.6-45.6-45.6-45.6z"/>

</svg>
