<svg xmlns="http://www.w3.org/2000/svg" viewBox="0 0 2880 1600">
	
  <path d="M1611.262 295.523c35.725 0 64.738 29.013 64.738 64.738h-.217v879.48c0 35.725-29.013 64.738-64.738 64.738h-342.308c-35.725 0-64.738-29.013-64.738-64.954V360.26c0-35.724 29.012-64.737 64.737-64.737h342.525m0-4h-342.525c-37.902 0-68.738 30.836-68.738 68.738v879.263c0 38.02 30.835 68.954 68.737 68.954h342.308c37.902 0 68.738-30.836 68.738-68.738V364.26h.217v-4c0-37.9-30.836-68.737-68.738-68.737z"/>
  <path d="M1481.138 373.468c0 3.68-2.815 6.495-6.495 6.495h-69.284c-3.682 0-6.496-2.815-6.496-6.495s2.815-6.495 6.495-6.495h69.283c3.68 0 6.495 2.814 6.495 6.495zM1440 1192.973c24.25 0 44.17 19.703 44.17 44.17 0 24.25-19.704 44.168-44.17 44.168s-44.17-19.702-44.17-44.168 19.92-44.17 44.17-44.17m0-5.196c-27.064 0-49.365 22.084-49.365 49.365 0 27.065 22.084 49.366 49.365 49.366s49.365-22.084 49.365-49.365c0-27.28-22.3-49.364-49.365-49.364z"/>
  
  
    <path d="M2431.262 295.523c35.725 0 64.738 29.013 64.738 64.738h-.217v879.48c0 35.725-29.013 64.738-64.738 64.738h-342.308c-35.725 0-64.738-29.013-64.738-64.954V360.26c0-35.724 29.012-64.737 64.737-64.737h342.525m0-4h-342.525c-37.902 0-68.738 30.836-68.738 68.738v879.263c0 38.02 30.834 68.954 68.737 68.954h342.308c37.902 0 68.738-30.836 68.738-68.738V364.26h.217v-4c0-37.9-30.836-68.737-68.738-68.737z"/>
    <path d="M2301.138 373.468c0 3.68-2.815 6.495-6.496 6.495h-69.284c-3.68 0-6.496-2.815-6.496-6.495s2.815-6.495 6.496-6.495h69.284c3.68 0 6.496 2.814 6.496 6.495zM2260 1192.973c24.25 0 44.17 19.703 44.17 44.17 0 24.25-19.704 44.168-44.17 44.168s-44.17-19.702-44.17-44.168c0-24.467 19.92-44.17 44.17-44.17m0-5.196c-27.064 0-49.365 22.084-49.365 49.365 0 27.065 22.084 49.366 49.365 49.366s49.365-22.084 49.365-49.365c0-27.28-22.3-49.364-49.365-49.364z"/>
  
  
    <path d="M791.262 295.523c35.725 0 64.738 29.013 64.738 64.738h-.217v879.48c0 35.725-29.013 64.738-64.738 64.738H448.738c-35.725 0-64.738-29.013-64.738-64.954V360.26c0-35.724 29.013-64.737 64.738-64.737h342.524m0-4H448.738c-37.902 0-68.738 30.836-68.738 68.738v879.263c0 38.02 30.836 68.954 68.738 68.954h342.308c37.902 0 68.738-30.836 68.738-68.738V364.26H860v-4c0-37.9-30.836-68.737-68.738-68.737z"/>
    <path d="M661.138 373.468c0 3.68-2.815 6.495-6.495 6.495H585.36c-3.682 0-6.496-2.815-6.496-6.495s2.815-6.495 6.495-6.495h69.283c3.68 0 6.495 2.814 6.495 6.495zM620 1192.973c24.25 0 44.17 19.703 44.17 44.17 0 24.25-19.704 44.168-44.17 44.168s-44.17-19.702-44.17-44.168 19.92-44.17 44.17-44.17m0-5.196c-27.064 0-49.365 22.084-49.365 49.365 0 27.065 22.084 49.366 49.365 49.366s49.365-22.084 49.365-49.365c0-27.28-22.3-49.364-49.365-49.364z"/>
  
</svg>
