<svg xmlns="http://www.w3.org/2000/svg" viewBox="0 0 2880 2000">

	<path d="M2302.457 327.29c2.638 0 5.72 1.26 5.72 4.82v77.175H372.27V332.11c0-3.558 3.082-4.82 5.72-4.82h1924.467m0-4H377.99c-5.4 0-9.72 3.42-9.72 8.82v81.175h1943.907V332.11c0-5.4-4.32-8.82-9.72-8.82z"/>
	<circle cx="411.109" cy="363.787" r="12.239"/>
	<circle cx="449.987" cy="363.787" r="12.239"/>
	<circle cx="489.046" cy="363.787" r="12.239"/>
	<path d="M2289.498 345.288c1.39 0 2.48 1.09 2.48 2.48v35.638c0 1.39-1.09 2.48-2.48 2.48H538.543c-1.39 0-2.48-1.09-2.48-2.48v-35.638c0-1.39 1.09-2.48 2.48-2.48h1750.955m0-4H538.543c-3.6 0-6.48 2.88-6.48 6.48v35.638c0 3.6 2.88 6.48 6.48 6.48h1750.955c3.6 0 6.48-2.88 6.48-6.48v-35.638c0-3.6-2.88-6.48-6.48-6.48z"/>


</svg>
