<svg xmlns="http://www.w3.org/2000/svg" viewBox="0 0 1440 2000">

  <path d="M987.463 211.3c55.792 0 101.102 45.31 101.102 101.102h-.338v1373.496c0 55.792-45.31 101.102-101.102 101.102H452.537c-55.792 0-101.102-45.31-101.102-101.44V312.402c0-55.792 45.31-101.102 101.102-101.102h534.926m0-10H452.537c-61.262 0-111.102 49.84-111.102 111.102V1685.56c0 29.797 11.56 57.793 32.55 78.832 20.98 21.028 48.876 32.608 78.552 32.608h534.588c61.262 0 111.102-49.84 111.102-111.102V322.402h.338v-10c0-61.262-49.84-111.102-111.102-111.102z"/>
  <path d="M784.245 333.028c0 5.748-4.396 10.144-10.144 10.144H665.9c-5.75 0-10.145-4.396-10.145-10.144s4.396-10.144 10.144-10.144H774.1c5.748 0 10.143 4.396 10.143 10.144zM720 1612.86c37.87 0 68.98 30.77 68.98 68.98 0 37.87-30.77 68.98-68.98 68.98s-68.98-30.77-68.98-68.98c0-38.21 31.11-68.98 68.98-68.98m0-8.114c-42.267 0-77.094 34.49-77.094 77.094 0 42.267 34.49 77.094 77.094 77.094s77.094-34.49 77.094-77.094c0-42.604-34.827-77.094-77.094-77.094z"/>

</svg>