<?xml version="1.0" encoding="UTF-8"?><!DOCTYPE svg PUBLIC "-//W3C//DTD SVG 1.1//EN" "http://www.w3.org/Graphics/SVG/1.1/DTD/svg11.dtd"><svg xmlns="http://www.w3.org/2000/svg"><symbol id="full-bp-browser" viewBox="0 0 2880 2000">

	<path d="M2302.457 327.29c2.638 0 5.72 1.26 5.72 4.82v77.175H372.27V332.11c0-3.558 3.082-4.82 5.72-4.82h1924.467m0-4H377.99c-5.4 0-9.72 3.42-9.72 8.82v81.175h1943.907V332.11c0-5.4-4.32-8.82-9.72-8.82z"/>
	<circle cx="411.109" cy="363.787" r="12.239"/>
	<circle cx="449.987" cy="363.787" r="12.239"/>
	<circle cx="489.046" cy="363.787" r="12.239"/>
	<path d="M2289.498 345.288c1.39 0 2.48 1.09 2.48 2.48v35.638c0 1.39-1.09 2.48-2.48 2.48H538.543c-1.39 0-2.48-1.09-2.48-2.48v-35.638c0-1.39 1.09-2.48 2.48-2.48h1750.955m0-4H538.543c-3.6 0-6.48 2.88-6.48 6.48v35.638c0 3.6 2.88 6.48 6.48 6.48h1750.955c3.6 0 6.48-2.88 6.48-6.48v-35.638c0-3.6-2.88-6.48-6.48-6.48z"/>


</symbol><symbol id="full-bp-phone" viewBox="0 0 2880 2000">

    <path d="M2420.928 735.71c33 0 59.8 26.8 59.8 59.8h-.2v812.4c0 33-26.8 59.8-59.8 59.8h-316.2c-33 0-59.8-26.8-59.8-60v-812.2c0-33 26.8-59.8 59.8-59.8h316.4m0-4h-316.4c-35.18 0-63.8 28.62-63.8 63.8v812.2c0 35.29 28.62 64 63.8 64h316.2c35.18 0 63.8-28.62 63.8-63.8v-808.4h.2v-4c0-35.18-28.62-63.8-63.8-63.8z"/>
    <path d="M2300.73 807.71c0 3.4-2.6 6-6 6h-64c-3.4 0-6-2.6-6-6s2.6-6 6-6h64c3.398 0 6 2.6 6 6zM2262.73 1564.71c22.4 0 40.8 18.2 40.8 40.8 0 22.4-18.2 40.8-40.8 40.8s-40.8-18.2-40.8-40.8 18.4-40.8 40.8-40.8m0-4.8c-25 0-45.6 20.4-45.6 45.6 0 25 20.4 45.6 45.6 45.6s45.6-20.4 45.6-45.6-20.6-45.6-45.6-45.6z"/>

</symbol><symbol id="full-browser" viewBox="0 0 2880 2000">

  <path d="M2509.2 284c3.385 0 6.8 1.793 6.8 5.8V376H364v-86.2c0-4.007 3.415-5.8 6.8-5.8h2138.4m0-4H370.8c-6 0-10.8 3.8-10.8 9.8V380h2160v-90.2c0-6-4.8-9.8-10.8-9.8z"/>
  <circle cx="407.6" cy="325" r="13.6"/>
  <circle cx="450.8" cy="325" r="13.6"/>
  <circle cx="494.2" cy="325" r="13.6"/>
  <path d="M2494.8 304c1.794 0 3.2 1.406 3.2 3.2v39.6c0 1.794-1.406 3.2-3.2 3.2H549.2c-1.794 0-3.2-1.406-3.2-3.2v-39.6c0-1.794 1.406-3.2 3.2-3.2h1945.6m0-4H549.2c-4 0-7.2 3.2-7.2 7.2v39.6c0 4 3.2 7.2 7.2 7.2h1945.6c4 0 7.2-3.2 7.2-7.2v-39.6c0-4-3.2-7.2-7.2-7.2z"/>

</symbol><symbol id="full-phone-3up" viewBox="0 0 2880 1600">
	
  <path d="M1611.262 295.523c35.725 0 64.738 29.013 64.738 64.738h-.217v879.48c0 35.725-29.013 64.738-64.738 64.738h-342.308c-35.725 0-64.738-29.013-64.738-64.954V360.26c0-35.724 29.012-64.737 64.737-64.737h342.525m0-4h-342.525c-37.902 0-68.738 30.836-68.738 68.738v879.263c0 38.02 30.835 68.954 68.737 68.954h342.308c37.902 0 68.738-30.836 68.738-68.738V364.26h.217v-4c0-37.9-30.836-68.737-68.738-68.737z"/>
  <path d="M1481.138 373.468c0 3.68-2.815 6.495-6.495 6.495h-69.284c-3.682 0-6.496-2.815-6.496-6.495s2.815-6.495 6.495-6.495h69.283c3.68 0 6.495 2.814 6.495 6.495zM1440 1192.973c24.25 0 44.17 19.703 44.17 44.17 0 24.25-19.704 44.168-44.17 44.168s-44.17-19.702-44.17-44.168 19.92-44.17 44.17-44.17m0-5.196c-27.064 0-49.365 22.084-49.365 49.365 0 27.065 22.084 49.366 49.365 49.366s49.365-22.084 49.365-49.365c0-27.28-22.3-49.364-49.365-49.364z"/>
  
  
    <path d="M2431.262 295.523c35.725 0 64.738 29.013 64.738 64.738h-.217v879.48c0 35.725-29.013 64.738-64.738 64.738h-342.308c-35.725 0-64.738-29.013-64.738-64.954V360.26c0-35.724 29.012-64.737 64.737-64.737h342.525m0-4h-342.525c-37.902 0-68.738 30.836-68.738 68.738v879.263c0 38.02 30.834 68.954 68.737 68.954h342.308c37.902 0 68.738-30.836 68.738-68.738V364.26h.217v-4c0-37.9-30.836-68.737-68.738-68.737z"/>
    <path d="M2301.138 373.468c0 3.68-2.815 6.495-6.496 6.495h-69.284c-3.68 0-6.496-2.815-6.496-6.495s2.815-6.495 6.496-6.495h69.284c3.68 0 6.496 2.814 6.496 6.495zM2260 1192.973c24.25 0 44.17 19.703 44.17 44.17 0 24.25-19.704 44.168-44.17 44.168s-44.17-19.702-44.17-44.168c0-24.467 19.92-44.17 44.17-44.17m0-5.196c-27.064 0-49.365 22.084-49.365 49.365 0 27.065 22.084 49.366 49.365 49.366s49.365-22.084 49.365-49.365c0-27.28-22.3-49.364-49.365-49.364z"/>
  
  
    <path d="M791.262 295.523c35.725 0 64.738 29.013 64.738 64.738h-.217v879.48c0 35.725-29.013 64.738-64.738 64.738H448.738c-35.725 0-64.738-29.013-64.738-64.954V360.26c0-35.724 29.013-64.737 64.738-64.737h342.524m0-4H448.738c-37.902 0-68.738 30.836-68.738 68.738v879.263c0 38.02 30.836 68.954 68.738 68.954h342.308c37.902 0 68.738-30.836 68.738-68.738V364.26H860v-4c0-37.9-30.836-68.737-68.738-68.737z"/>
    <path d="M661.138 373.468c0 3.68-2.815 6.495-6.495 6.495H585.36c-3.682 0-6.496-2.815-6.496-6.495s2.815-6.495 6.495-6.495h69.283c3.68 0 6.495 2.814 6.495 6.495zM620 1192.973c24.25 0 44.17 19.703 44.17 44.17 0 24.25-19.704 44.168-44.17 44.168s-44.17-19.702-44.17-44.168 19.92-44.17 44.17-44.17m0-5.196c-27.064 0-49.365 22.084-49.365 49.365 0 27.065 22.084 49.366 49.365 49.366s49.365-22.084 49.365-49.365c0-27.28-22.3-49.364-49.365-49.364z"/>
  
</symbol><symbol id="half-phone" viewBox="0 0 1440 2000">

  <path d="M987.463 211.3c55.792 0 101.102 45.31 101.102 101.102h-.338v1373.496c0 55.792-45.31 101.102-101.102 101.102H452.537c-55.792 0-101.102-45.31-101.102-101.44V312.402c0-55.792 45.31-101.102 101.102-101.102h534.926m0-10H452.537c-61.262 0-111.102 49.84-111.102 111.102V1685.56c0 29.797 11.56 57.793 32.55 78.832 20.98 21.028 48.876 32.608 78.552 32.608h534.588c61.262 0 111.102-49.84 111.102-111.102V322.402h.338v-10c0-61.262-49.84-111.102-111.102-111.102z"/>
  <path d="M784.245 333.028c0 5.748-4.396 10.144-10.144 10.144H665.9c-5.75 0-10.145-4.396-10.145-10.144s4.396-10.144 10.144-10.144H774.1c5.748 0 10.143 4.396 10.143 10.144zM720 1612.86c37.87 0 68.98 30.77 68.98 68.98 0 37.87-30.77 68.98-68.98 68.98s-68.98-30.77-68.98-68.98c0-38.21 31.11-68.98 68.98-68.98m0-8.114c-42.267 0-77.094 34.49-77.094 77.094 0 42.267 34.49 77.094 77.094 77.094s77.094-34.49 77.094-77.094c0-42.604-34.827-77.094-77.094-77.094z"/>

</symbol></svg>